<svg xmlns="http://www.w3.org/2000/svg" viewBox="0 0 555.5 294.1"><defs><style>.cls-1{fill:#031b4d;}.cls-2{fill:#1989fa;}</style></defs><title>msap-logo-dark</title><g id="Layer_2" data-name="Layer 2"><g id="Layer_1-2" data-name="Layer 1"><path class="cls-1" d="M242.26,91.72c-4.69,32.84-9.38,65.67-14.16,99.09H195.25c4-28.76,7.95-57.39,12-86.63H185.41c-4.08,28.58-8.18,57.33-12.37,86.61h-33c4-28.83,7.94-57.28,12-86.43H130.27c-4.12,28.49-8.28,57.22-12.6,87.05H84.74v-8c.61-1.47,1.55-2.89,1.77-4.42q6.17-43.64,12.19-87.3Z"/><path class="cls-1" d="M449.62,213.35q7.71-54.43,15.35-108.88c.58-4.2.42-8.5.6-12.75,27.92,0,55.83,0,83.75.07,2.53,0,7.2-2.23,6,3.92a64,64,0,0,0-2,7.49c-4.17,29.13-8.24,58.26-12.39,87.7h-49.7c.69-4.08,1.27-7.54,1.87-11.09l16.27-.74c3.58-25,7.1-49.72,10.67-74.65H498.26c-1.33,9.2-2.64,17.7-3.78,26.21q-5.53,41.35-11,82.72Z"/><path class="cls-1" d="M449.62,91.72l-13.3,99.05H348c3.56-25.65,7.06-50.85,10.63-76.54h49c-.18,3.41-.36,6.79-.57,10.82l-16.8,1c-2.53,17.61-5,34.9-7.6,52.83h21.88c3.58-24.82,7.13-49.38,10.81-74.87H360.69c.46-4.74.83-8.53,1.2-12.31Z"/><path class="cls-1" d="M345.94,91.72l-4.71,37.11H308.08c1.12-8,2.2-15.86,3.39-24.42H289.7l-4.59,30.82h55c-2.65,19.15-5.12,37.05-7.67,55.53H244.34c1.79-12.45,3.53-24.48,5.29-36.7h32.79c-1.11,8.44-2.13,16.3-3.25,24.8H301c1.43-10.09,2.86-20.14,4.43-31.22H250.45c2.68-19.34,5.22-37.63,7.76-55.92Z"/><polygon class="cls-2" points="347.94 71.78 357.9 0 43.45 0 0 294.1 319.02 292.11 329.59 215.2 294.02 215.2 288.43 260.64 38.84 260.31 72.43 30.81 321.68 31.14 315.76 71.31 347.94 71.78"/></g></g></svg>